<svg width="38" height="17" viewBox="0 0 38 17" fill="none" xmlns="http://www.w3.org/2000/svg">
<path d="M13.4043 8.82031C13.4043 7.1276 12.929 5.71484 11.9785 4.58203C11.028 3.4362 9.74544 2.86328 8.13086 2.86328C6.34701 2.86328 4.86263 3.40365 3.67773 4.48438C2.49284 5.55208 1.90039 6.9388 1.90039 8.64453C1.90039 10.7148 2.43424 12.3685 3.50195 13.6055C4.56966 14.8424 6.26237 15.4609 8.58008 15.4609C9.03581 15.4609 9.49154 15.3763 9.94727 15.207C9.97331 15.3112 9.98633 15.3698 9.98633 15.3828C9.98633 15.6302 9.76497 15.8516 9.32227 16.0469C8.89258 16.2422 8.28711 16.3398 7.50586 16.3398C6.49023 16.3398 5.5332 16.125 4.63477 15.6953C3.73633 15.2656 2.98112 14.7122 2.36914 14.0352C1.77018 13.3711 1.29492 12.6289 0.943359 11.8086C0.604818 10.9883 0.435547 10.181 0.435547 9.38672C0.435547 7.04297 1.19076 5.18099 2.70117 3.80078C4.21159 2.42057 6.0931 1.73047 8.3457 1.73047C9.2832 1.73047 10.1556 1.9388 10.9629 2.35547C11.7702 2.75911 12.4342 3.28646 12.9551 3.9375C13.4889 4.58854 13.8991 5.3112 14.1855 6.10547C14.485 6.88672 14.6348 7.66797 14.6348 8.44922C14.6348 9.34766 14.5241 10.1289 14.3027 10.793C14.0814 11.444 13.7884 11.9388 13.4238 12.2773C13.0592 12.6159 12.6816 12.8633 12.291 13.0195C11.9004 13.1758 11.4967 13.2539 11.0801 13.2539C10.416 13.2539 9.85612 13.0911 9.40039 12.7656C8.95768 12.4401 8.73633 12.069 8.73633 11.6523C8.73633 11.6393 8.72331 11.6393 8.69727 11.6523C8.67122 11.6654 8.65169 11.6784 8.63867 11.6914C8.48242 12.0299 8.15039 12.3555 7.64258 12.668C7.13477 12.9805 6.57487 13.1367 5.96289 13.1367C5.27279 13.1367 4.71289 12.8372 4.2832 12.2383C3.86654 11.6393 3.6582 10.9753 3.6582 10.2461C3.6582 8.86589 4.16602 7.64844 5.18164 6.59375C6.21029 5.52604 7.55143 4.99219 9.20508 4.99219C9.43945 4.99219 9.7194 5.00521 10.0449 5.03125C10.3704 5.05729 10.6374 5.08333 10.8457 5.10938L11.1777 5.16797C11.1126 5.59766 11.0671 5.94271 11.041 6.20312L10.6309 10.207C10.6048 10.4674 10.5918 10.6497 10.5918 10.7539C10.5658 11.8086 10.8066 12.3359 11.3145 12.3359C12.7077 12.3359 13.4043 11.1641 13.4043 8.82031ZM8.93164 6.47656C8.93164 6.32031 8.89258 6.20312 8.81445 6.125C8.73633 6.03385 8.56706 5.98828 8.30664 5.98828C7.73372 5.98828 7.17383 6.37891 6.62695 7.16016C6.08008 7.92839 5.80664 8.94401 5.80664 10.207C5.80664 10.8711 5.85872 11.3333 5.96289 11.5938C6.08008 11.8411 6.26237 11.9648 6.50977 11.9648C6.93945 11.9648 7.38867 11.6263 7.85742 10.9492C8.33919 10.2591 8.5931 9.75781 8.61914 9.44531L8.91211 6.71094C8.92513 6.63281 8.93164 6.55469 8.93164 6.47656ZM21.1582 12.5312C21.1582 12.5312 21.1387 12.5573 21.0996 12.6094C21.0215 12.6745 20.8457 12.707 20.5723 12.707H20.123C20.0449 12.707 19.9798 12.694 19.9277 12.668C19.8887 12.6289 19.8691 12.5964 19.8691 12.5703V12.5312L20.2988 9.66016H18.6973L18.2676 12.5312C18.2676 12.5573 18.2611 12.5768 18.248 12.5898C18.248 12.6029 18.196 12.6289 18.0918 12.668C18.0007 12.694 17.8574 12.707 17.6621 12.707H17.2129C17.1348 12.707 17.0697 12.694 17.0176 12.668C16.9785 12.6289 16.959 12.5964 16.959 12.5703L16.9395 12.5312L17.3887 9.66016H15.7871C15.709 9.66016 15.6699 9.59505 15.6699 9.46484C15.6699 9.15234 15.722 8.82031 15.8262 8.46875C15.8392 8.42969 15.8522 8.40365 15.8652 8.39062C15.8913 8.3776 15.9173 8.37109 15.9434 8.37109H15.9629H17.5645L17.7988 6.92578H15.7871C15.709 6.91276 15.6699 6.84115 15.6699 6.71094C15.6699 6.39844 15.722 6.06641 15.8262 5.71484C15.8392 5.67578 15.8522 5.64974 15.8652 5.63672C15.8913 5.6237 15.9173 5.61719 15.9434 5.61719H15.9629H17.9746L18.4434 2.64844C18.4434 2.53125 18.8145 2.47266 19.5566 2.47266C19.6348 2.47266 19.6868 2.49219 19.7129 2.53125C19.752 2.55729 19.7715 2.58333 19.7715 2.60938L19.752 2.64844L19.3027 5.61719H20.9043L21.373 2.64844C21.373 2.53125 21.7441 2.47266 22.4863 2.47266C22.5645 2.47266 22.6165 2.49219 22.6426 2.53125C22.6816 2.55729 22.7012 2.58333 22.7012 2.60938L22.6816 2.64844L22.2129 5.61719H23.7363C23.7493 5.61719 23.7624 5.61719 23.7754 5.61719C23.7884 5.60417 23.8079 5.61068 23.834 5.63672C23.86 5.66276 23.873 5.70182 23.873 5.75391C23.873 6.06641 23.8145 6.41146 23.6973 6.78906L23.5801 6.92578H22.0371L21.7832 8.37109H23.7363C23.7493 8.37109 23.7624 8.37109 23.7754 8.37109C23.7884 8.35807 23.8079 8.36458 23.834 8.39062C23.86 8.41667 23.873 8.45573 23.873 8.50781C23.873 8.82031 23.8145 9.16536 23.6973 9.54297C23.6842 9.58203 23.6647 9.61458 23.6387 9.64062C23.6257 9.65365 23.6126 9.66016 23.5996 9.66016H23.5801H21.627L21.1582 12.5312ZM20.4941 8.37109L20.7285 6.92578H19.127L18.873 8.37109H20.4941ZM31.0215 11.0273C30.8522 10.832 30.5592 10.4284 30.1426 9.81641C29.7259 9.20443 29.3483 8.64453 29.0098 8.13672L28.5215 7.375C27.9225 7.80469 27.623 8.61849 27.623 9.81641C27.623 10.5065 27.7988 11.0273 28.1504 11.3789C28.502 11.7305 28.9316 11.9062 29.4395 11.9062C30.0514 11.9062 30.5788 11.6133 31.0215 11.0273ZM30.0449 1.22266C29.6543 1.22266 29.3743 1.3724 29.2051 1.67188C29.0358 1.97135 28.9512 2.33594 28.9512 2.76562C28.9512 2.92188 28.9707 3.09115 29.0098 3.27344C29.0618 3.45573 29.127 3.63802 29.2051 3.82031C29.2962 4.0026 29.3743 4.15234 29.4395 4.26953C29.5046 4.38672 29.5957 4.54297 29.7129 4.73828C29.8301 4.92057 29.8952 5.02474 29.9082 5.05078C30.39 4.71224 30.7415 4.38021 30.9629 4.05469C31.1842 3.72917 31.2949 3.29948 31.2949 2.76562C31.2949 2.40104 31.1842 2.05599 30.9629 1.73047C30.7546 1.39193 30.4486 1.22266 30.0449 1.22266ZM27.6035 0.988281C28.2806 0.467448 29.1139 0.200521 30.1035 0.1875C31.0931 0.174479 31.8874 0.395833 32.4863 0.851562C33.0853 1.29427 33.3848 1.8737 33.3848 2.58984C33.3848 3.38411 33.1504 4.05469 32.6816 4.60156C32.2129 5.14844 31.5358 5.69531 30.6504 6.24219C31.1712 7.07552 31.8939 8.08464 32.8184 9.26953C33.5085 8.46224 33.8535 8 33.8535 7.88281C33.8535 7.7526 33.7884 7.66146 33.6582 7.60938C33.541 7.55729 33.3978 7.53125 33.2285 7.53125C33.0592 7.53125 32.9681 7.53125 32.9551 7.53125C32.929 7.42708 32.916 7.30339 32.916 7.16016C32.916 7.00391 32.9355 6.91927 32.9746 6.90625L34.9863 6.92578C35.5592 6.92578 36.2819 6.90625 37.1543 6.86719C37.2194 6.89323 37.252 7.00391 37.252 7.19922C37.252 7.44661 37.1999 7.58333 37.0957 7.60938C36.4447 7.70052 36.0085 7.82422 35.7871 7.98047C35.709 8.03255 35.5267 8.22135 35.2402 8.54688C34.9668 8.8724 34.6673 9.23698 34.3418 9.64062C34.0293 10.0312 33.8014 10.2982 33.6582 10.4414L33.7559 10.5586C33.821 10.6367 33.8796 10.7083 33.9316 10.7734C33.9837 10.8255 34.0553 10.8971 34.1465 10.9883C34.2376 11.0664 34.3223 11.138 34.4004 11.2031C34.4785 11.2552 34.5697 11.3008 34.6738 11.3398C34.791 11.3789 34.9017 11.3984 35.0059 11.3984C35.2663 11.3984 35.5137 11.2878 35.748 11.0664C35.9824 10.832 36.1647 10.6042 36.2949 10.3828C36.3861 10.3828 36.4967 10.4414 36.627 10.5586C36.7702 10.6628 36.8418 10.7604 36.8418 10.8516C36.7376 11.151 36.4186 11.5938 35.8848 12.1797C35.3639 12.7656 34.8105 13.0586 34.2246 13.0586C33.7949 13.0586 33.3848 12.974 32.9941 12.8047C32.6165 12.6224 32.3431 12.4401 32.1738 12.2578L31.9199 11.9844C31.0866 12.7135 30.0319 13.0781 28.7559 13.0781C27.7142 13.0781 26.8092 12.8112 26.041 12.2773C25.2728 11.7435 24.8887 10.9297 24.8887 9.83594C24.8887 9.36719 24.9733 8.9375 25.1426 8.54688C25.3249 8.14323 25.5918 7.77865 25.9434 7.45312C26.3079 7.11458 26.6009 6.86719 26.8223 6.71094C27.0436 6.54167 27.3496 6.33333 27.7402 6.08594C27.7012 6.03385 27.623 5.91016 27.5059 5.71484C27.3887 5.50651 27.304 5.35677 27.252 5.26562C27.1999 5.16146 27.1217 5.01172 27.0176 4.81641C26.9264 4.60807 26.8548 4.43229 26.8027 4.28906C26.7507 4.14583 26.7051 3.98307 26.666 3.80078C26.627 3.60547 26.6074 3.41667 26.6074 3.23438C26.6074 2.24479 26.9395 1.49609 27.6035 0.988281Z" fill="#ffffff"/>
</svg>
