<svg width="25" height="14" viewBox="0 0 25 14" fill="none" xmlns="http://www.w3.org/2000/svg">
<path d="M0.732422 3.83984C0.654297 3.80078 0.582682 3.72917 0.517578 3.625C0.465495 3.52083 0.439453 3.4362 0.439453 3.37109C0.439453 3.24089 0.452474 3.16276 0.478516 3.13672C1.14258 2.70703 1.83268 2.27083 2.54883 1.82812C3.26497 1.38542 3.83138 1.04688 4.24805 0.8125C4.67773 0.565104 4.9056 0.441406 4.93164 0.441406H4.9707C5.07487 0.441406 5.15299 0.565104 5.20508 0.8125C5.08789 1.1901 5.0293 1.80208 5.0293 2.64844V10.4805C5.0293 11.0143 5.08138 11.4831 5.18555 11.8867C5.21159 11.9779 5.37435 12.082 5.67383 12.1992C5.98633 12.3034 6.19466 12.3555 6.29883 12.3555C6.33789 12.3555 6.35742 12.4922 6.35742 12.7656C6.35742 12.9219 6.3444 13.026 6.31836 13.0781C6.17513 13.0651 5.78451 13.0391 5.14648 13C4.52148 12.9479 4.05924 12.9219 3.75977 12.9219C3.46029 12.9219 2.98503 12.9479 2.33398 13C1.69596 13.0391 1.31185 13.0651 1.18164 13.0781C1.12956 13.026 1.10352 12.8958 1.10352 12.6875C1.10352 12.4661 1.12956 12.3555 1.18164 12.3555C1.32487 12.3555 1.55273 12.2969 1.86523 12.1797C2.17773 12.0625 2.34701 11.9518 2.37305 11.8477C2.45117 11.5352 2.49023 11.1641 2.49023 10.7344V4.17188C2.49023 3.52083 2.36003 3.19531 2.09961 3.19531C1.9043 3.19531 1.44857 3.41016 0.732422 3.83984ZM11.3184 0.460938C12.2819 0.460938 13.0827 0.766927 13.7207 1.37891C14.3717 1.97786 14.6973 2.79167 14.6973 3.82031C14.6973 4.23698 14.6452 4.64714 14.541 5.05078C14.4368 5.45443 14.235 5.88411 13.9355 6.33984C13.6491 6.78255 13.4082 7.14714 13.2129 7.43359C13.0176 7.70703 12.6595 8.10417 12.1387 8.625C11.6178 9.14583 11.2598 9.4974 11.0645 9.67969C10.8822 9.84896 10.4655 10.2331 9.81445 10.832C9.78841 10.8581 9.7819 10.8971 9.79492 10.9492C9.80794 10.9883 9.84049 11.0078 9.89258 11.0078H13.2324C13.5059 11.0078 13.7402 10.9622 13.9355 10.8711C14.1309 10.7669 14.2871 10.6107 14.4043 10.4023C14.5215 10.194 14.6061 10.0182 14.6582 9.875C14.7103 9.73177 14.7689 9.52995 14.834 9.26953C14.86 9.17839 14.9707 9.13281 15.166 9.13281C15.3613 9.13281 15.5111 9.17188 15.6152 9.25C15.3548 10.3568 15.1009 11.5156 14.8535 12.7266C14.8275 12.9089 14.7493 13 14.6191 13H7.4707C7.32747 12.8438 7.24935 12.6289 7.23633 12.3555C8.48633 10.9753 9.58659 9.51042 10.5371 7.96094C11.4876 6.39844 11.9629 5.14193 11.9629 4.19141C11.9629 3.63151 11.8132 3.14323 11.5137 2.72656C11.2142 2.29688 10.8105 2.08203 10.3027 2.08203C9.97721 2.08203 9.67122 2.15365 9.38477 2.29688C9.11133 2.42708 8.90951 2.5638 8.7793 2.70703C8.64909 2.85026 8.51888 3.01302 8.38867 3.19531L8.19336 3.46875C8.08919 3.46875 7.96549 3.42318 7.82227 3.33203C7.69206 3.22786 7.62695 3.11068 7.62695 2.98047C7.73112 2.74609 7.86784 2.51172 8.03711 2.27734C8.20638 2.02995 8.43424 1.75651 8.7207 1.45703C9.02018 1.15755 9.39128 0.916667 9.83398 0.734375C10.2897 0.552083 10.7845 0.460938 11.3184 0.460938ZM21.0254 0.460938C21.5592 0.460938 22.0671 0.65625 22.5488 1.04688C23.0436 1.42448 23.291 1.97786 23.291 2.70703C23.291 3.33203 23.1087 3.91797 22.7441 4.46484C22.3796 4.9987 22.0085 5.38281 21.6309 5.61719C22.1387 5.61719 22.7376 5.92318 23.4277 6.53516C24.1178 7.14714 24.4629 7.90885 24.4629 8.82031C24.4629 10.1094 23.903 11.1445 22.7832 11.9258C21.6634 12.694 20.4199 13.0781 19.0527 13.0781C18.2194 13.0781 17.4577 12.8568 16.7676 12.4141C16.6895 12.2057 16.6504 12.0169 16.6504 11.8477C16.6504 11.5482 16.709 11.2812 16.8262 11.0469C16.9564 10.7995 17.1712 10.6758 17.4707 10.6758C17.8483 10.6758 18.2129 10.9102 18.5645 11.3789C18.903 11.8346 19.3587 12.0625 19.9316 12.0625C20.5436 12.0625 21.0124 11.8281 21.3379 11.3594C21.6634 10.8776 21.8262 10.2005 21.8262 9.32812C21.8262 8.57292 21.6439 7.96094 21.2793 7.49219C20.9147 7.01042 20.4134 6.76953 19.7754 6.76953C19.4759 6.76953 19.1178 6.80208 18.7012 6.86719C18.61 6.75 18.5645 6.55469 18.5645 6.28125C18.5645 6.17708 18.584 6.07943 18.623 5.98828C19.3652 5.87109 19.9447 5.58464 20.3613 5.12891C20.791 4.66016 21.0059 4.07422 21.0059 3.37109C21.0059 2.83724 20.8822 2.44661 20.6348 2.19922C20.4004 1.95182 20.127 1.82812 19.8145 1.82812C19.0723 1.82812 18.4603 2.10156 17.9785 2.64844C17.8874 2.64844 17.7897 2.58333 17.6855 2.45312C17.5814 2.32292 17.5293 2.21224 17.5293 2.12109C17.9069 1.6263 18.4017 1.22917 19.0137 0.929688C19.6257 0.617188 20.2962 0.460938 21.0254 0.460938Z" fill="#ffffff"/>
</svg>
