<svg width="7" height="3" viewBox="0 0 7 3" fill="none" xmlns="http://www.w3.org/2000/svg">
<path d="M0.931641 2.01562C0.931641 1.72917 0.944661 1.48828 0.970703 1.29297C1.00977 1.08464 1.04232 0.947917 1.06836 0.882812C1.10742 0.817708 1.13997 0.785156 1.16602 0.785156H1.18555L5.89258 0.550781H5.91211C5.99023 0.550781 6.0293 0.609375 6.0293 0.726562C6.0293 1.01302 6.00977 1.26693 5.9707 1.48828C5.93164 1.69661 5.88607 1.83333 5.83398 1.89844L5.77539 2.01562L1.06836 2.23047C1.05534 2.23047 1.04232 2.23047 1.0293 2.23047C1.01628 2.23047 0.996745 2.21094 0.970703 2.17188C0.944661 2.13281 0.931641 2.08073 0.931641 2.01562Z" fill="#ffffff"/>
</svg>
